HIERARCHY
ROOT Hips
{
	OFFSET	0	0	0
	CHANNELS 6  Xposition Yposition Zposition Xrotation Yrotation Zrotation
	JOINT Spine
	{
		OFFSET	0	7.00908	1.40711
		CHANNELS 3  Xrotation Yrotation Zrotation
		JOINT Spine1
		{
			OFFSET	0	11.9997	-2.14281
			CHANNELS 3  Xrotation Yrotation Zrotation
			JOINT Spine2
			{
				OFFSET	0	9.09621	0.974976
				CHANNELS 3  Xrotation Yrotation Zrotation
				JOINT Spine3
				{
					OFFSET	0	10.8855	3.23564
					CHANNELS 3  Xrotation Yrotation Zrotation
					JOINT Spine4
					{
						OFFSET	0	16.1139	-1.64996
						CHANNELS 3  Xrotation Yrotation Zrotation
						JOINT Neck
						{
							OFFSET	0	7.69267	-5.38915
							CHANNELS 3  Xrotation Yrotation Zrotation
							JOINT Head
							{
								OFFSET	0	9.23549	-2.76422
								CHANNELS 3  Xrotation Yrotation Zrotation
								End Site
								{
									OFFSET	0	19.2638	-0.93212
								}
							}
						}
					}
					JOINT LeftShoulder
					{
						OFFSET	-4.62846	19.5852	-9.23549
						CHANNELS 3  Xrotation Yrotation Zrotation
						JOINT LeftArm
						{
							OFFSET	-10.1082	-2.76422	3.54636
							CHANNELS 3  Xrotation Yrotation Zrotation
							JOINT LeftForeArm
							{
								OFFSET	-30.9178	-1.41114	2.20688
								CHANNELS 3  Xrotation Yrotation Zrotation
								JOINT LeftHand
								{
									OFFSET	-25.989	-1.79599	1.85507
									CHANNELS 3  Xrotation Yrotation Zrotation
									End Site
									{
										OFFSET	-9.4847	-0.655447	0.676963
									}
								}
							}
						}
					}
					JOINT RightShoulder
					{
						OFFSET	4.62846	19.5852	-9.23549
						CHANNELS 3  Xrotation Yrotation Zrotation
						JOINT RightArm
						{
							OFFSET	10.1082	-2.76422	3.54636
							CHANNELS 3  Xrotation Yrotation Zrotation
							JOINT RightForeArm
							{
								OFFSET	30.9178	-1.41114	2.20688
								CHANNELS 3  Xrotation Yrotation Zrotation
								JOINT RightHand
								{
									OFFSET	25.989	-1.79599	1.85507
									CHANNELS 3  Xrotation Yrotation Zrotation
									End Site
									{
										OFFSET	9.4847	-0.655447	0.676963
									}
								}
							}
						}
					}
				}
			}
		}
	}
	JOINT LeftUpLeg
	{
		OFFSET	-9.51492	-3.50454	-0.703555
		CHANNELS 3  Xrotation Yrotation Zrotation
		JOINT LeftLeg
		{
			OFFSET	-2.15663	-42.2584	-0.660591
			CHANNELS 3  Xrotation Yrotation Zrotation
			JOINT LeftFoot
			{
				OFFSET	-2.11138	-38.9194	3.34707
				CHANNELS 3  Xrotation Yrotation Zrotation
				JOINT LeftToeBase
				{
					OFFSET	0	-4.8091	-12.773
					CHANNELS 3  Xrotation Yrotation Zrotation
					End Site
					{
						OFFSET	0	-1.92364	-7.69456
					}
				}
			}
		}
	}
	JOINT RightUpLeg
	{
		OFFSET	9.51492	-3.50454	-0.703555
		CHANNELS 3  Xrotation Yrotation Zrotation
		JOINT RightLeg
		{
			OFFSET	2.15663	-42.2584	-0.660591
			CHANNELS 3  Xrotation Yrotation Zrotation
			JOINT RightFoot
			{
				OFFSET	2.11138	-38.9194	3.34707
				CHANNELS 3  Xrotation Yrotation Zrotation
				JOINT RightToeBase
				{
					OFFSET	0	-4.8091	-12.773
					CHANNELS 3  Xrotation Yrotation Zrotation
					End Site
					{
						OFFSET	0	-1.92364	-7.69456
					}
				}
			}
		}
	}
}
MOTION
Frames: 20
Frame Time: 0.020408
 0 -9.53305 2.91081 -0 0 -0 -0 0 -0 -0 0 -0 -0 0 -0 -0 0 -0 -0 0 -0 -0 0 -0 -0 0 -0 -0 0 -0 -0 0 -0 -0 0 -0 -0 0 -0 -0 0 -0 -0 0 -0 -0 0 -0 -0 0 -0 -0 0 -0 -0 0 -0 -0 0 -0 -0 0 -0 -0 0 -0 -0 0 -0 -0 0 -0 -0 0 -0
 70.2806 92.8102 161.271 48.8748 -77.0264 50.413 179.999 179.708 -179.899 173.986 179.417 -179.832 173.795 178.25 -179.832 175.43 179.708 -179.899 179.305 -180 -179.966 3.79455 4.92746 1.33821 1.12925 6.51969 0.857684 179.668 -152.223 179.279 163.874 -144.976 -119.638 53.5147 -13.3157 14.805 -0 13.327 4.19224 176.7 163.241 -172.937 2.29767 -3.36866 -72.3805 150.232 60.1133 -152.181 -0 11.4428 -6.70973 179.57 162.933 178.814 175.702 168.478 176.485 177.354 -179.982 -177.856 177.615 180 -180 172.496 -172.854 -171.105 153.828 -168.563 178.964 11.0743 -1.54233 -13.7628 179.15 180 -180
 69.9239 92.7446 161.934 53.1816 -77.4152 54.5904 179.999 179.753 -179.836 173.921 179.507 -179.727 173.718 178.521 -179.727 175.352 179.753 -179.836 179.367 -179.999 -179.945 4.06797 5.3118 0.787446 1.20442 7.75242 0.771227 179.822 -152.16 179.614 163.954 -144.617 -120.754 53.4509 -12.9603 14.2123 -0 13.6711 4.24536 177.005 162.994 -173.588 2.23646 -3.87376 -72.523 150.675 59.3769 -152.747 -0 10.8349 -6.04381 179.207 162.07 178.405 176.284 168.763 176.659 176.817 -179.997 -176.956 177.558 180 -180 172.598 -173.418 -171.423 154.293 -168.697 179.288 11.3437 -1.07895 -13.271 179.01 180 -180
 69.601 92.6737 162.638 54.8909 -77.2932 56.0091 179.999 179.812 -179.821 173.889 179.623 -179.701 173.708 178.87 -179.701 175.396 179.812 -179.821 179.203 -179.999 -179.94 3.65854 5.69657 0.46293 1.07489 8.80972 0.751141 0.0995988 -27.5292 0.216331 164.757 -144.204 -121.419 53.5671 -12.9842 14.239 -0 13.7808 4.24322 176.886 162.876 -173.33 1.66608 -4.08919 -72.2781 151.261 58.3952 -153.488 -0 10.1755 -5.50063 178.815 161.26 178.4 177.101 169.322 176.596 176.069 -179.91 -177.494 177.539 180 -180 172.255 -173.16 -171.758 155.214 -168.727 179.679 11.504 -0.816004 -13.0335 179.039 180 -180
 69.335 92.5947 163.682 56.2242 -77.0661 56.9963 179.999 179.844 -179.743 173.876 179.688 -179.571 173.712 179.064 -179.571 175.438 179.844 -179.743 179.081 -179.999 -179.914 3.34823 6.05427 0.148225 0.975046 9.79742 0.730306 0.212952 -26.9671 0.462526 165.17 -144.151 -122.588 53.6764 -12.9902 14.43 -0 13.7229 4.16593 177.083 162.746 -173.751 1.07937 -4.38843 -72.1885 151.488 57.8043 -153.846 -0 9.57924 -5.04404 178.414 160.455 178.004 177.93 169.933 176.8 175.158 -179.759 -176.588 177.482 180 -180 171.601 -172.908 -172.426 156.588 -168.637 -179.937 11.4519 -0.561339 -12.2983 178.852 180 -180
 69.2135 92.4552 164.52 57.3915 -76.6862 57.6237 179.999 179.857 -179.661 173.844 179.714 -179.435 173.667 179.141 -179.435 175.384 179.857 -179.661 179.145 -179.998 -179.887 3.58277 6.4449 0.126616 1.04211 10.4368 0.764064 0.323358 -26.4547 0.702257 165.75 -144.038 -123.337 53.8343 -13.1732 14.7693 -0 13.7078 4.01734 177.301 162.466 -174.215 0.661124 -4.70591 -72.0109 151.553 57.503 -153.889 -0 8.99184 -4.55896 177.837 159.888 177.948 178.528 170.377 177.009 174.518 -179.695 -176.692 177.451 180 -180 171.02 -172.777 -172.721 157.654 -168.653 -179.697 11.3172 -0.278869 -11.8055 178.771 180 -180
 68.8399 92.3375 165.699 57.5455 -76.5279 57.4263 179.999 179.899 -179.601 173.833 179.798 -179.335 173.664 179.394 -179.334 175.395 179.899 -179.601 179.099 -179.998 -179.867 3.48019 6.77783 0.127152 1.00729 10.9982 0.806067 0.343373 -25.8091 0.745538 166.396 -144.002 -124.163 54.0462 -13.4182 15.0906 -0 13.6287 3.86498 177.8 162.474 -175.287 0.2063 -5.10935 -72.1677 151.544 57.2549 -153.863 -0 8.40091 -3.9825 177.815 159.324 177.589 179.343 171.001 177.181 173.426 -179.512 -177.007 177.425 180 -180 170.334 -172.473 -173.515 159.75 -168.56 -179.413 10.6621 -0.151822 -11.3247 178.7 180 -180
 68.4819 92.0661 166.661 61.3083 -76.8802 60.7613 179.999 179.849 -179.496 173.851 179.698 -179.16 173.679 179.093 -179.16 175.414 179.849 -179.496 179.09 -179.997 -179.832 3.43496 6.81856 0.179453 0.993498 11.0117 0.823935 0.199239 -24.9285 0.432348 166.972 -143.981 -124.736 54.1997 -13.6419 15.5335 -0 13.6121 3.56407 178.132 162.246 -175.997 179.71 -174.569 107.96 151.419 57.163 -153.776 -0 7.90013 -3.37877 177.811 158.73 177.373 179.584 171.138 177.122 173.052 -179.567 -176.402 177.363 180 -180 169.602 -172.462 -173.946 163.396 -168.732 -179.453 10.7662 0.0169771 -10.0359 178.798 180 -180
 68.3802 92.0372 167.775 61.6286 -76.5048 61.0547 179.999 179.868 -179.499 173.839 179.737 -179.165 173.691 179.21 -179.165 175.475 179.868 -179.499 178.925 -179.997 -179.833 2.98148 7.21756 0.566809 0.854288 11.2972 0.971701 0.282415 -23.9738 0.612318 168.091 -143.844 -124.988 54.3809 -13.8898 15.9596 -0 13.3664 3.19962 178.308 162.402 -176.377 178.64 -174.317 108.312 151.475 56.7494 -153.966 -0 7.56007 -2.5409 177.562 158.49 176.671 0.230894 8.48416 -2.80596 172.171 -179.549 -176.197 177.328 180 -180 168.572 -172.193 -174.791 164.751 -168.954 -179.343 10.8118 0.200112 -9.42892 178.776 180 -180
 68.354 92.0115 168.79 61.5797 -76.1561 60.9109 179.999 179.883 -179.471 173.833 179.766 -179.118 173.712 179.299 -179.118 175.55 179.883 -179.471 178.74 -179.996 -179.824 2.46343 7.26425 0.460435 0.694575 11.573 0.971338 0.212122 -23.2661 0.459532 168.777 -143.81 -125.262 54.4902 -14.0291 16.3703 -0 13.2007 2.82646 178.695 162.308 -177.206 177.854 -174.37 108.219 151.576 56.2403 -154.24 -0 7.22799 -1.84016 177.426 158.173 176.021 0.635764 8.16273 -2.60064 171.442 -179.534 -175.843 177.287 180 -180 167.503 -171.751 -175.266 166.175 -169.141 -179.682 10.7653 0.386618 -8.84409 178.743 180 -180
 67.9724 91.9973 169.736 61.9557 -76.1245 61.2736 179.999 179.903 -179.466 173.82 179.806 -179.109 173.73 179.418 -179.109 175.629 179.903 -179.466 178.528 -179.995 -179.822 1.88277 7.77553 0.843932 0.514473 12.0966 1.13846 0.25868 -22.9122 0.560135 170.18 -143.434 -125.383 54.6188 -14.2111 16.5457 -0 13.0017 2.33513 178.772 162.613 -177.373 176.685 -174.31 108.629 151.556 56.0138 -154.212 -0 6.84531 -1.17228 177.413 157.966 175.523 1.39138 7.82426 -2.59116 170.449 -179.705 -175.607 177.248 180 -180 166.765 -172.033 -176.089 168.003 -169.249 -179.45 10.3106 0.445856 -8.29323 178.715 180 -180
 67.7944 91.9614 170.538 61.4143 -75.8103 60.5772 179.999 179.938 -179.462 173.793 179.877 -179.104 173.719 179.63 -179.104 175.653 179.938 -179.462 178.42 -179.995 -179.821 1.62882 7.82767 0.255393 0.428932 12.8701 1.02773 0.341054 -22.4887 0.73806 171.674 -143.157 -125.451 54.8292 -14.5742 17.0472 -0 12.6713 1.81112 179.16 162.547 -178.202 175.503 -174.656 108.744 150.88 56.8831 -153.382 -0 6.33131 -0.507632 177.382 157.916 175.356 1.78607 7.33659 -2.72924 169.685 -179.717 -175.973 177.239 180 -180 165.741 -171.773 -176.522 169.707 -169.43 -179.591 10.0323 0.664139 -7.40334 178.72 180 -180
 67.213 91.9526 171.662 61.1008 -75.7735 60.5419 180 179.968 -179.522 173.759 179.936 -179.204 173.71 179.807 -179.204 175.697 179.968 -179.522 178.253 -179.995 -179.841 1.21002 8.06861 -0.0128618 0.293356 13.6305 1.01826 0.249961 -22.1874 0.540672 173.314 -142.867 -125.791 55.1534 -15.1445 17.7343 -0 12.2668 1.34162 179.355 162.477 -178.619 174.541 -175.022 109.343 150.659 57.1531 -153.059 -0 6.16541 0.0208091 177.655 157.838 174.643 2.77112 6.8795 -2.8223 168.406 -179.792 -175.957 177.219 180 -180 165.056 -171.929 -177.835 171.554 -169.545 -179.283 9.45367 0.822616 -6.47982 178.705 180 -180
 67.0219 91.9066 172.757 60.9232 -75.5405 60.2301 180 179.966 -179.538 173.765 179.931 -179.23 173.729 179.794 -179.23 175.741 179.966 -179.538 178.16 -179.995 -179.846 0.977878 8.31175 -0.581107 0.211215 14.6861 0.939334 0.159777 -21.664 0.345295 174.748 -142.533 -125.714 55.5434 -15.8006 19.1199 -0 11.8456 0.954797 179.596 162.994 -179.138 172.908 -175.162 109.582 150.353 57.619 -152.683 -0 5.919 0.57244 177.818 157.629 174.285 2.80314 6.68897 -2.67717 167.655 -179.881 -175.028 177.125 180 -180 164.183 -171.632 -178.515 173.294 -169.73 -178.796 9.17079 0.5831 -6.58307 178.628 180 -180
 66.1311 92.1555 173.145 61.9093 -75.772 60.9914 180 179.974 -179.574 173.749 179.947 -179.29 173.743 179.842 -179.29 175.82 179.974 -179.574 177.947 -179.995 -179.858 0.415656 8.56877 -1.10865 0.0268061 15.7552 0.88915 0.0353769 -21.2324 0.0763927 176.247 -142.055 -125.386 56.1313 -16.7012 20.8449 -0 11.4197 0.658755 179.598 163.246 -179.141 171.97 -175.381 110.552 150.359 57.7996 -152.58 -0 5.77405 0.913164 177.866 157.592 174.479 3.40928 6.53219 -2.61022 166.337 179.943 -175.028 177.113 180 -180 164.097 -171.729 -178.554 174.802 -170.052 -178.701 8.10545 0.705108 -6.27111 178.62 180 -180
 66.0922 92.0523 174.184 61.4995 -75.6584 60.4416 8.72514e-06 -0.00112569 0.444085 173.717 -179.998 -179.26 173.727 -179.993 -179.26 175.84 -179.999 -179.556 177.838 -179.994 -179.852 0.141063 8.46266 -1.56827 179.94 163.913 -179.208 179.874 -159.709 179.729 176.732 -142.1 -125.111 56.6211 -17.5061 21.9971 -0 11.0151 0.244465 179.789 163.319 -179.551 170.848 -176.276 111.188 150.586 57.7448 -152.821 -0 5.66139 0.94032 178.026 157.758 173.989 3.81436 6.20316 -2.81409 165.562 179.879 -175.158 177.134 180 -180 164.095 -171.851 -179.454 174.845 -170.288 -178.494 8.41152 0.836505 -5.61523 178.598 180 -180
 65.6868 91.9526 175.288 62.8732 -75.9086 61.7702 180 179.959 -179.515 173.674 179.917 -179.192 173.702 179.752 -179.192 175.874 179.959 -179.515 177.678 -179.993 -179.839 179.725 171.489 178.4 179.809 163.754 -179.187 179.728 -160.673 179.415 177.463 -142.178 -125.299 57.2094 -18.3461 23.5881 -0 10.4803 -0.0724618 0.118259 16.4704 -0.252191 169.923 -177.15 111.594 150.802 57.5554 -153.031 -0 5.53292 0.743679 178.571 157.397 173.24 3.9202 6.18838 -2.67314 164.902 179.86 -174.161 177.022 180 -180 164.32 -171.887 -179.85 175.514 -170.638 -178.741 8.20045 0.69445 -7.02189 178.535 180 -180
 65.1993 91.8082 176.151 65.1569 -76.3369 63.9992 180 179.958 -179.524 173.661 179.917 -179.207 173.706 179.75 -179.207 175.916 179.958 -179.524 177.556 -179.993 -179.842 179.395 171.425 178.203 179.704 163.41 -179.201 179.641 -161.381 179.229 177.734 -142.24 -125.025 57.9486 -19.3601 25.5366 -0 9.89984 -0.128926 0.328533 15.7643 -0.698901 168.927 -177.419 112.083 150.924 57.6112 -153.084 -0 5.46116 0.773157 179.054 157.145 172.764 4.03474 6.23697 -2.70669 164.199 179.851 -173.974 177.004 180 -180 164.445 -172.157 179.78 176.205 -170.988 -178.824 8.20879 0.548261 -7.77379 178.496 180 -180
 64.5597 91.6521 177.088 67.5143 -76.7983 66.6176 180 179.976 -179.535 173.629 179.952 -179.226 173.674 179.855 -179.226 175.891 179.976 -179.535 177.554 -179.993 -179.845 179.429 171.4 177.906 179.711 163.066 -179.261 179.388 -162.038 178.688 177.79 -142.234 -125.054 58.7235 -20.3928 27.4482 -0 9.43809 -0.214329 0.766384 14.5749 -1.62323 167.962 -177.373 112.245 150.938 57.832 -153.013 -0 5.45087 0.836525 179.755 156.757 171.841 4.52165 6.27926 -2.59472 163.211 179.89 -173.809 176.98 180 -180 164.712 -172.398 179.147 176.339 -171.357 -179.286 8.62746 0.346956 -9.15262 178.469 180 -180
 64.4126 91.5764 177.784 70.2438 -76.8459 69.1665 180 179.978 -179.515 173.548 179.957 -179.191 173.591 179.87 -179.191 175.832 179.978 -179.515 177.54 -179.993 -179.838 179.481 171.228 177.852 179.722 162.719 -179.251 179.292 -162.482 178.485 177.959 -142.179 -124.765 59.3355 -21.1811 28.9817 -0 8.98545 -0.312457 1.06581 13.7831 -2.25041 167.214 -177.799 112.23 151.009 58.1337 -153.141 -0 5.59865 0.707456 179.489 156.524 171.55 4.84812 6.47302 -2.44158 162.774 179.838 -173.77 176.972 180 -180 165.148 -173.04 178.368 175.418 -171.924 -177.869 8.81229 1.5524 -4.08448 178.452 180 -180
